<svg id="Capa_1" enable-background="new 0 0 512 512" height="512" viewBox="0 0 512 512" width="512" xmlns="http://www.w3.org/2000/svg"><g><g><path d="m235.212 37.301-11.15-27.869c-3.077-7.691-11.806-11.432-19.498-8.355 0 0-151.311 60.573-151.951 60.884l59.916 40.568 114.327-45.728c7.693-3.077 11.434-11.808 8.356-19.5z"/><path d="m35.71 89.426v44.513h60v-6.568l-59.888-40.549c-.066.866-.112 1.734-.112 2.604z"/><path d="m35.71 164v333c0 8.284 6.716 15 15 15h30c8.284 0 15-6.716 15-15v-333z"/></g><g><path d="m475.212 37.301-11.15-27.869c-3.077-7.691-11.806-11.432-19.498-8.355 0 0-151.311 60.573-151.951 60.884l59.916 40.568 114.327-45.728c7.693-3.077 11.434-11.808 8.356-19.5z"/><path d="m275.71 89.426v44.513h60v-6.568l-59.888-40.549c-.066.866-.112 1.734-.112 2.604z"/><path d="m275.71 164v333c0 8.284 6.716 15 15 15h30c8.284 0 15-6.716 15-15v-333z"/></g></g></svg>