<svg id="Capa_1" enable-background="new 0 0 509.99 509.99" height="512" viewBox="0 0 509.99 509.99" width="512" xmlns="http://www.w3.org/2000/svg"><g id="XMLID_299_"><path id="XMLID_304_" d="m477.345 0-164.198 29.853c-4.311.838-8.388 2.248-12.166 4.133 2.543 1.49 5.135 3.081 7.762 4.784 19.234 12.465 35.577 27.735 48.613 45.267l119.989-22.157z"/><path id="XMLID_308_" d="m279.22 56.195c-2.948 6.213-4.587 13.134-4.587 20.382v433.413h58.68v-408.038c-16.75-22.507-37.46-36.934-54.093-45.757z"/><path id="XMLID_318_" d="m37.233 56.195c-2.948 6.213-4.587 13.134-4.587 20.382v433.413h58.68v-408.039c-16.751-22.506-37.461-36.933-54.093-45.756z"/><path id="XMLID_319_" d="m235.357 0-164.198 29.853c-4.311.838-8.388 2.248-12.166 4.133 2.543 1.49 5.135 3.081 7.762 4.784 19.234 12.465 35.577 27.735 48.613 45.267l119.989-22.157z"/></g></svg>