<?xml version="1.0" encoding="iso-8859-1"?>
<!-- Generator: Adobe Illustrator 19.0.0, SVG Export Plug-In . SVG Version: 6.00 Build 0)  -->
<svg version="1.1" id="Capa_1" xmlns="http://www.w3.org/2000/svg" xmlns:xlink="http://www.w3.org/1999/xlink" x="0px" y="0px"
	 viewBox="0 0 512 512" style="enable-background:new 0 0 512 512;" xml:space="preserve">
<g>
	<g>
		<path d="M352,0H160c-8.832,0-16,7.168-16,16v88.224C174.432,79.104,213.44,64,256,64s81.568,15.104,112,40.224V16
			C368,7.168,360.832,0,352,0z"/>
	</g>
</g>
<g>
	<g>
		<path d="M256,416c-42.56,0-81.568-15.104-112-40.224V496c0,8.832,7.168,16,16,16h192c8.832,0,16-7.168,16-16V375.776
			C337.568,400.896,298.56,416,256,416z"/>
	</g>
</g>
<g>
	<g>
		<path d="M256,96c-79.52,0-144,64.48-144,144s64.48,144,144,144s144-64.48,144-144S335.52,96,256,96z M315.328,299.328
			C312.192,302.432,308.096,304,304,304s-8.192-1.568-11.328-4.672l-48-48C241.696,248.32,240,244.256,240,240v-64
			c0-8.832,7.168-16,16-16c8.832,0,16,7.168,16,16v57.376l43.328,43.328C321.568,282.944,321.568,293.088,315.328,299.328z"/>
	</g>
</g>
<g>
</g>
<g>
</g>
<g>
</g>
<g>
</g>
<g>
</g>
<g>
</g>
<g>
</g>
<g>
</g>
<g>
</g>
<g>
</g>
<g>
</g>
<g>
</g>
<g>
</g>
<g>
</g>
<g>
</g>
</svg>
